<?xml version="1.0" standalone="no"?>
<!DOCTYPE svg PUBLIC "-//W3C//DTD SVG 20010904//EN"
 "http://www.w3.org/TR/2001/REC-SVG-20010904/DTD/svg10.dtd">
<svg version="1.0" xmlns="http://www.w3.org/2000/svg"
 width="1248.000000pt" height="1248.000000pt" viewBox="0 0 1248.000000 1248.000000"
 preserveAspectRatio="xMidYMid meet">
<metadata>
Created by potrace 1.11, written by Peter Selinger 2001-2013
</metadata>
<g transform="translate(0.000000,1248.000000) scale(0.100000,-0.100000)"
fill="#000000" stroke="none">
<path d="M1520 10290 l0 -1330 2468 0 c1358 0 2472 -3 2475 -6 4 -4 -29 -48
-71 -98 -79 -93 -1120 -1328 -1556 -1846 -132 -157 -274 -325 -316 -375 -42
-49 -281 -333 -531 -630 -690 -819 -2149 -2551 -2361 -2803 l-188 -222 0
-1065 0 -1065 4800 0 4800 0 0 1330 0 1330 -2636 0 c-1634 0 -2634 4 -2632 9
3 8 227 277 669 801 62 74 485 576 939 1115 785 931 2257 2680 3087 3664 l383
455 0 1033 0 1033 -4665 0 -4665 0 0 -1330z m9010 195 l0 -815 -78 -92 c-43
-51 -345 -410 -672 -798 -327 -388 -772 -916 -990 -1175 -218 -258 -940 -1116
-1605 -1905 -1090 -1294 -1600 -1900 -1977 -2347 -70 -83 -128 -154 -128 -157
0 -3 1276 -6 2835 -6 l2835 0 0 -1010 0 -1010 -4520 0 -4520 0 0 818 1 817
1310 1555 c1932 2293 2165 2568 3512 4168 339 403 617 734 617 737 0 3 -1194
6 -2652 7 l-2653 3 -3 1013 -2 1012 4345 0 4345 0 0 -815z"/>
</g>
</svg>
