<svg width="850" height="850" viewBox="0 0 850 850" fill="none" xmlns="http://www.w3.org/2000/svg">
<circle cx="425" cy="425" r="425" fill="black"/>
<path d="M549.734 665.094C553.308 676.622 547.329 688.899 536.065 693.215C493.924 709.36 454.522 715 403.239 715C264.777 715 143 615.664 143 452.048C143 281.755 266.453 134 454.968 134C601.752 134 706.839 235.005 706.839 375.247C706.839 497.12 638.445 573.918 548.375 573.918C509.157 573.918 480.806 553.889 476.645 509.636H474.969C449.124 552.21 411.588 573.918 367.377 573.918C313.149 573.918 273.97 533.85 273.97 465.402C273.97 363.56 349.011 270.907 469.127 270.907C491.122 270.907 514.903 274.199 534.919 279.354C554.247 284.332 566.528 303.186 563.334 322.903L543.362 446.203C535.04 495.452 540.877 517.987 564.216 518.827C600.078 519.665 645.133 473.754 645.133 377.754C645.133 269.229 575.064 184.926 445.776 184.926C318.162 184.926 206.388 285.091 206.388 444.535C206.388 583.939 295.627 663.245 419.911 663.245C452.259 663.245 486.049 657.933 515.056 647.682C521.955 645.244 529.548 645.725 536.087 649.008C542.628 652.292 547.564 658.096 549.732 665.09L549.734 665.094ZM480.567 347.591C481.196 343.321 478.341 339.315 474.1 338.527C468.907 337.563 462.878 336.848 455.774 336.848C400.735 336.848 357.376 391.112 357.376 455.388C357.376 487.115 371.541 507.143 399.061 507.143C429.928 507.143 462.46 467.914 469.979 419.492L480.567 347.591Z" fill="white"/>
</svg>
