<svg width="850" height="850" viewBox="0 0 850 850" fill="none" xmlns="http://www.w3.org/2000/svg">
<circle cx="425" cy="425" r="425" fill="black"/>
<path d="M205.83 192.96C208.18 195.3 210.53 198.67 210.54 202.06C210.55 207.92 203.67 215.87 190.95 228.93C137.91 280 111.23 342.54 111.41 417.97C111.61 501.42 139.67 568.44 194.21 620.38C205.68 630.63 210.39 638.69 210.41 645.59C210.41 648.97 208.08 652.49 205.74 655.88C203.54 658.23 198.85 660.59 195.47 660.59C182.85 660.62 165.19 645.7 142.13 616.67C97.23 561.64 76.93 500.87 75.79 418.05C74.74 335.19 100.72 279 151.57 220.99C169.87 200.26 185.13 189.49 195.54 189.47C198.92 189.46 202.44 190.62 205.83 192.96Z" fill="white"/>
<path d="M484.42 432.9C464.49 427.81 546.27 331.19 400.92 215.51C400.92 215.51 419.99 276.1 323.83 411.31C227.62 546.47 366.61 626.99 366.61 626.99C366.61 626.99 301.38 592.23 377.21 468.47C390.78 446.02 408.54 425.69 430.59 379.93C430.59 379.93 450.11 407.48 439.92 467.21C424.68 557.47 506.01 531.64 507.27 532.9C535.68 566.35 483.74 625.14 480.58 626.99C477.43 628.79 628.91 535.87 521.29 396.03C513.92 403.4 504.34 438 484.42 432.9Z" fill="white"/>
<path d="M644.26 192.9C641.91 195.24 639.56 198.61 639.55 202C639.54 207.86 646.42 215.81 659.14 228.87C712.18 279.93 738.86 342.48 738.68 417.91C738.48 501.36 710.42 568.38 655.88 620.32C644.41 630.57 639.7 638.63 639.68 645.53C639.68 648.91 642.01 652.43 644.35 655.82C646.55 658.17 651.24 660.52 654.62 660.53C667.24 660.56 684.9 645.64 707.96 616.61C752.86 561.58 773.16 500.81 774.3 417.99C775.35 335.13 749.37 278.94 698.52 220.93C680.22 200.2 664.96 189.43 654.55 189.41C651.17 189.4 647.65 190.56 644.26 192.9Z" fill="white"/>
</svg>
